<svg width="50" height="50" viewBox="0 0 50 50" fill="none" xmlns="http://www.w3.org/2000/svg">
<path d="M22.9166 29.5833V12.5C22.9166 11.9097 23.1163 11.4149 23.5156 11.0156C23.9149 10.6163 24.4097 10.4166 25 10.4166C25.5902 10.4166 26.085 10.6163 26.4843 11.0156C26.8836 11.4149 27.0833 11.9097 27.0833 12.5V29.5833L33.125 23.5416C33.5069 23.1597 33.993 22.9687 34.5833 22.9687C35.1736 22.9687 35.6597 23.1597 36.0416 23.5416C36.4236 23.9236 36.6145 24.4097 36.6145 25C36.6145 25.5902 36.4236 26.0763 36.0416 26.4583L26.4583 36.0416C26.0416 36.4583 25.5555 36.6666 25 36.6666C24.4444 36.6666 23.9583 36.4583 23.5416 36.0416L13.9583 26.4583C13.5763 26.0763 13.3854 25.5902 13.3854 25C13.3854 24.4097 13.5763 23.9236 13.9583 23.5416C14.3402 23.1597 14.8263 22.9687 15.4166 22.9687C16.0069 22.9687 16.493 23.1597 16.875 23.5416L22.9166 29.5833Z" fill="#002855"/>
</svg>
