<svg width="50" height="50" viewBox="0 0 50 50" fill="none" xmlns="http://www.w3.org/2000/svg">
<path d="M10.4167 43.75C9.27083 43.75 8.28993 43.342 7.47396 42.526C6.65799 41.7101 6.25 40.7291 6.25 39.5833V10.4166C6.25 9.27081 6.65799 8.28991 7.47396 7.47394C8.28993 6.65797 9.27083 6.24998 10.4167 6.24998H19.1667C19.6181 4.99998 20.3733 3.99304 21.4323 3.22915C22.4913 2.46526 23.6806 2.08331 25 2.08331C26.3194 2.08331 27.5087 2.46526 28.5677 3.22915C29.6267 3.99304 30.3819 4.99998 30.8333 6.24998H39.5833C40.7292 6.24998 41.7101 6.65797 42.526 7.47394C43.342 8.28991 43.75 9.27081 43.75 10.4166V39.5833C43.75 40.7291 43.342 41.7101 42.526 42.526C41.7101 43.342 40.7292 43.75 39.5833 43.75H10.4167ZM10.4167 38.5416C10.4167 39.1169 10.883 39.5833 11.4583 39.5833H38.5417C39.117 39.5833 39.5833 39.1169 39.5833 38.5416V11.4583C39.5833 10.883 39.117 10.4166 38.5417 10.4166H11.4583C10.883 10.4166 10.4167 10.883 10.4167 11.4583V38.5416ZM25 8.85415C25.4514 8.85415 25.8247 8.70658 26.1198 8.41144C26.4149 8.1163 26.5625 7.74304 26.5625 7.29165C26.5625 6.84026 26.4149 6.46699 26.1198 6.17185C25.8247 5.87672 25.4514 5.72915 25 5.72915C24.5486 5.72915 24.1753 5.87672 23.8802 6.17185C23.5851 6.46699 23.4375 6.84026 23.4375 7.29165C23.4375 7.74304 23.5851 8.1163 23.8802 8.41144C24.1753 8.70658 24.5486 8.85415 25 8.85415ZM15.625 35.4166H18.125C18.4028 35.4166 18.6719 35.3559 18.9323 35.2344C19.1927 35.1128 19.4097 34.9653 19.5833 34.7916L31.4583 23.0208L26.9792 18.5416L15.2083 30.3125C15 30.5208 14.8438 30.7552 14.7396 31.0156C14.6354 31.276 14.5833 31.5451 14.5833 31.8229V34.375C14.5833 34.6528 14.6875 34.8958 14.8958 35.1041C15.1042 35.3125 15.3472 35.4166 15.625 35.4166ZM32.9167 21.5625L35.1042 19.2708C35.3125 19.0625 35.4167 18.8194 35.4167 18.5416C35.4167 18.2639 35.3125 18.0208 35.1042 17.8125L32.1875 14.8958C31.9792 14.6875 31.7361 14.5833 31.4583 14.5833C31.1806 14.5833 30.9375 14.6875 30.7292 14.8958L28.4375 17.0833L32.9167 21.5625Z" fill="black"/>
</svg>
