<svg width="20" height="20" viewBox="0 0 20 20" fill="none" xmlns="http://www.w3.org/2000/svg">
<path d="M8.9585 15.8334C9.48627 15.8334 9.93072 15.6529 10.2918 15.2917C10.6529 14.9306 10.8335 14.4862 10.8335 13.9584V10.8334H12.5002C12.7363 10.8334 12.9343 10.7534 13.0943 10.5934C13.2538 10.434 13.3335 10.2362 13.3335 10.0001C13.3335 9.76397 13.2538 9.56591 13.0943 9.40591C12.9343 9.24647 12.7363 9.16675 12.5002 9.16675H10.8335C10.5974 9.16675 10.3996 9.24647 10.2402 9.40591C10.0802 9.56591 10.0002 9.76397 10.0002 10.0001V12.3959C9.84738 12.2848 9.68433 12.2048 9.511 12.1559C9.33711 12.1076 9.15294 12.0834 8.9585 12.0834C8.43072 12.0834 7.98627 12.264 7.62516 12.6251C7.26405 12.9862 7.0835 13.4306 7.0835 13.9584C7.0835 14.4862 7.26405 14.9306 7.62516 15.2917C7.98627 15.6529 8.43072 15.8334 8.9585 15.8334ZM5.00016 18.3334C4.54183 18.3334 4.14961 18.1704 3.8235 17.8442C3.49683 17.5176 3.3335 17.1251 3.3335 16.6667V3.33341C3.3335 2.87508 3.49683 2.48258 3.8235 2.15591C4.14961 1.8298 4.54183 1.66675 5.00016 1.66675H10.9793C11.2016 1.66675 11.4135 1.70841 11.6152 1.79175C11.8163 1.87508 11.9932 1.99314 12.146 2.14591L16.1877 6.18758C16.3404 6.34036 16.4585 6.5173 16.5418 6.71842C16.6252 6.92008 16.6668 7.13203 16.6668 7.35425V16.6667C16.6668 17.1251 16.5038 17.5176 16.1777 17.8442C15.851 18.1704 15.4585 18.3334 15.0002 18.3334H5.00016ZM10.8335 3.33341H5.41683C5.18671 3.33341 5.00016 3.51996 5.00016 3.75008V16.2501C5.00016 16.4802 5.18671 16.6667 5.41683 16.6667H14.5835C14.8136 16.6667 15.0002 16.4802 15.0002 16.2501V7.50008H11.6668C11.4307 7.50008 11.2329 7.42008 11.0735 7.26008C10.9135 7.10064 10.8335 6.90286 10.8335 6.66675V3.33341Z" fill="black"/>
</svg>
