<svg width="24" height="20" viewBox="0 0 24 20" fill="none" xmlns="http://www.w3.org/2000/svg">
<path d="M5 4H19V2.5C19 2.22386 18.7761 2 18.5 2H5.5C5.22386 2 5 2.22386 5 2.5V4ZM5 18C4.45 18 3.97917 17.8042 3.5875 17.4125C3.19583 17.0208 3 16.55 3 16V2C3 1.45 3.19583 0.979167 3.5875 0.5875C3.97917 0.195833 4.45 0 5 0H6V-1C6 -1.28333 6.09583 -1.52083 6.2875 -1.7125C6.47917 -1.90417 6.71667 -2 7 -2C7.28333 -2 7.52083 -1.90417 7.7125 -1.7125C7.90417 -1.52083 8 -1.28333 8 -1V0H16V-1C16 -1.28333 16.0958 -1.52083 16.2875 -1.7125C16.4792 -1.90417 16.7167 -2 17 -2C17.2833 -2 17.5208 -1.90417 17.7125 -1.7125C17.9042 -1.52083 18 -1.28333 18 -1V0H19C19.55 0 20.0208 0.195833 20.4125 0.5875C20.8042 0.979167 21 1.45 21 2V7.675C20.6833 7.525 20.3583 7.4 20.025 7.3C19.6917 7.2 19.35 7.125 19 7.075V6H5V15.5C5 15.7761 5.22386 16 5.5 16H11.3C11.4167 16.3667 11.5542 16.7167 11.7125 17.05C11.8708 17.3833 12.0583 17.7 12.275 18H5ZM18 19C16.6167 19 15.4375 18.5125 14.4625 17.5375C13.4875 16.5625 13 15.3833 13 14C13 12.6167 13.4875 11.4375 14.4625 10.4625C15.4375 9.4875 16.6167 9 18 9C19.3833 9 20.5625 9.4875 21.5375 10.4625C22.5125 11.4375 23 12.6167 23 14C23 15.3833 22.5125 16.5625 21.5375 17.5375C20.5625 18.5125 19.3833 19 18 19ZM18.5 13.8V11.5C18.5 11.3667 18.45 11.25 18.35 11.15C18.25 11.05 18.1333 11 18 11C17.8667 11 17.75 11.05 17.65 11.15C17.55 11.25 17.5 11.3667 17.5 11.5V13.775C17.5 13.9083 17.525 14.0375 17.575 14.1625C17.625 14.2875 17.7 14.4 17.8 14.5L19.325 16.025C19.425 16.125 19.5417 16.175 19.675 16.175C19.8083 16.175 19.925 16.125 20.025 16.025C20.125 15.925 20.175 15.8083 20.175 15.675C20.175 15.5417 20.125 15.425 20.025 15.325L18.5 13.8Z" fill="#009688"/>
</svg>
