<svg width="50" height="50" viewBox="0 0 50 50" fill="none" xmlns="http://www.w3.org/2000/svg">
<g clip-path="url(#clip0_72_598)">
<path d="M12.4998 37.5L7.70817 42.2917C7.04845 42.9514 6.29324 43.099 5.44255 42.7344C4.59185 42.3698 4.1665 41.7188 4.1665 40.7812V8.33333C4.1665 7.1875 4.57449 6.2066 5.39046 5.39062C6.20643 4.57465 7.18734 4.16667 8.33317 4.16667H29.3748C29.2359 4.86111 29.1665 5.55556 29.1665 6.25C29.1665 6.94444 29.2359 7.63889 29.3748 8.33333H9.37484C8.79954 8.33333 8.33317 8.7997 8.33317 9.375V32.2917C8.33317 32.867 8.79954 33.3333 9.37484 33.3333H40.6248C41.2001 33.3333 41.6665 32.867 41.6665 32.2917V16.4583C42.4651 16.2847 43.2116 16.0503 43.9061 15.7552C44.6005 15.4601 45.2429 15.0694 45.8332 14.5833V33.3333C45.8332 34.4792 45.4252 35.4601 44.6092 36.276C43.7932 37.092 42.8123 37.5 41.6665 37.5H12.4998ZM39.5832 12.5C37.8471 12.5 36.3714 11.8924 35.1561 10.6771C33.9408 9.46181 33.3332 7.98611 33.3332 6.25C33.3332 4.51389 33.9408 3.03819 35.1561 1.82292C36.3714 0.607639 37.8471 0 39.5832 0C41.3193 0 42.795 0.607639 44.0103 1.82292C45.2255 3.03819 45.8332 4.51389 45.8332 6.25C45.8332 7.98611 45.2255 9.46181 44.0103 10.6771C42.795 11.8924 41.3193 12.5 39.5832 12.5Z" fill="black"/>
</g>
<defs>
<clipPath id="clip0_72_598">
<rect width="50" height="50" fill="white"/>
</clipPath>
</defs>
</svg>
