<svg width="50" height="50" viewBox="0 0 50 50" fill="none" xmlns="http://www.w3.org/2000/svg">
<path d="M22.0833 28.75L17.6042 24.2709C17.2222 23.8889 16.7361 23.6979 16.1458 23.6979C15.5555 23.6979 15.0694 23.8889 14.6875 24.2709C14.3055 24.6528 14.1146 25.1389 14.1146 25.7292C14.1146 26.3195 14.3055 26.8056 14.6875 27.1875L20.625 33.125C21.0417 33.5417 21.5278 33.75 22.0833 33.75C22.6389 33.75 23.125 33.5417 23.5417 33.125L35.3125 21.3542C35.6944 20.9722 35.8854 20.4861 35.8854 19.8959C35.8854 19.3056 35.6944 18.8195 35.3125 18.4375C34.9305 18.0556 34.4444 17.8646 33.8542 17.8646C33.2639 17.8646 32.7778 18.0556 32.3958 18.4375L22.0833 28.75ZM25 45.8334C22.118 45.8334 19.4097 45.2865 16.875 44.1927C14.3403 43.099 12.1354 41.6146 10.2604 39.7396C8.38541 37.8646 6.90103 35.6597 5.80728 33.125C4.71353 30.5903 4.16666 27.882 4.16666 25C4.16666 22.1181 4.71353 19.4097 5.80728 16.875C6.90103 14.3403 8.38541 12.1354 10.2604 10.2604C12.1354 8.38544 14.3403 6.90106 16.875 5.80731C19.4097 4.71356 22.118 4.16669 25 4.16669C27.8819 4.16669 30.5903 4.71356 33.125 5.80731C35.6597 6.90106 37.8646 8.38544 39.7396 10.2604C41.6146 12.1354 43.0989 14.3403 44.1927 16.875C45.2864 19.4097 45.8333 22.1181 45.8333 25C45.8333 27.882 45.2864 30.5903 44.1927 33.125C43.0989 35.6597 41.6146 37.8646 39.7396 39.7396C37.8646 41.6146 35.6597 43.099 33.125 44.1927C30.5903 45.2865 27.8819 45.8334 25 45.8334ZM25 41.6667C29.6528 41.6667 33.5937 40.0521 36.8229 36.8229C40.0521 33.5938 41.6667 29.6528 41.6667 25C41.6667 20.3472 40.0521 16.4063 36.8229 13.1771C33.5937 9.94794 29.6528 8.33335 25 8.33335C20.3472 8.33335 16.4062 9.94794 13.1771 13.1771C9.94791 16.4063 8.33332 20.3472 8.33332 25C8.33332 29.6528 9.94791 33.5938 13.1771 36.8229C16.4062 40.0521 20.3472 41.6667 25 41.6667Z" fill="white"/>
</svg>
