<svg width="50" height="50" viewBox="0 0 50 50" fill="none" xmlns="http://www.w3.org/2000/svg">
<path d="M7.29175 41.6668C6.42369 41.6668 5.68585 41.363 5.07821 40.7554C4.47057 40.1477 4.16675 39.4099 4.16675 38.5418V15.6252C4.16675 14.7571 4.47057 14.0193 5.07821 13.4116C5.68585 12.804 6.42369 12.5002 7.29175 12.5002H20.5209L24.6876 8.3335H42.7084C43.5765 8.3335 44.3143 8.63732 44.922 9.24495C45.5296 9.85259 45.8334 10.5904 45.8334 11.4585V38.5418C45.8334 39.4099 45.5296 40.1477 44.922 40.7554C44.3143 41.363 43.5765 41.6668 42.7084 41.6668H7.29175ZM10.3647 27.0835H22.9167V14.5314L10.3647 27.0835ZM7.29175 25.7293L17.3959 15.6252H7.29175V25.7293ZM7.29175 30.2085V38.5418H42.7084V11.4585H26.0417V27.0835C26.0417 27.9516 25.7379 28.6894 25.1303 29.297C24.5226 29.9047 23.7848 30.2085 22.9167 30.2085H7.29175Z" fill="black"/>
</svg>
