<svg width="40" height="40" viewBox="0 0 40 40" fill="none" xmlns="http://www.w3.org/2000/svg">
<path d="M15 30C14.0833 30 13.2989 29.6739 12.6467 29.0216C11.9933 28.3683 11.6667 27.5833 11.6667 26.6666V6.66665C11.6667 5.74998 11.9933 4.96498 12.6467 4.31165C13.2989 3.65942 14.0833 3.33331 15 3.33331H30C30.9167 3.33331 31.7017 3.65942 32.355 4.31165C33.0072 4.96498 33.3333 5.74998 33.3333 6.66665V26.6666C33.3333 27.5833 33.0072 28.3683 32.355 29.0216C31.7017 29.6739 30.9167 30 30 30H15ZM15 25.8333C15 26.2936 15.3731 26.6666 15.8333 26.6666H29.1667C29.6269 26.6666 30 26.2936 30 25.8333V7.49998C30 7.03974 29.6269 6.66665 29.1667 6.66665H15.8333C15.3731 6.66665 15 7.03974 15 7.49998V25.8333ZM5 25H8.33333V21.6666H5V25ZM5 19.1666H8.33333V15.8333H5V19.1666ZM16.6667 36.6666H20V33.3333H16.6667V36.6666ZM5 30.8333H8.33333V27.5H5V30.8333ZM8.33333 36.6666V33.3333H5C5 34.25 5.32611 35.035 5.97833 35.6883C6.63167 36.3405 7.41667 36.6666 8.33333 36.6666ZM10.8333 36.6666H14.1667V33.3333H10.8333V36.6666ZM22.5 36.6666C23.4167 36.6666 24.2017 36.3405 24.855 35.6883C25.5072 35.035 25.8333 34.25 25.8333 33.3333H22.5V36.6666ZM5 13.3333H8.33333V9.99998C7.41667 9.99998 6.63167 10.3266 5.97833 10.98C5.32611 11.6322 5 12.4166 5 13.3333Z" fill="#002855"/>
</svg>
