<svg width="25" height="25" viewBox="0 0 25 25" fill="none" xmlns="http://www.w3.org/2000/svg">
<path d="M12.4998 16.2238C12.3609 16.2238 12.2307 16.2021 12.1092 16.1587C11.9877 16.1153 11.8748 16.0415 11.7707 15.9373L8.02067 12.1873C7.8297 11.9964 7.73421 11.7533 7.73421 11.4582C7.73421 11.163 7.8297 10.92 8.02067 10.729C8.21164 10.538 8.45904 10.4382 8.76286 10.4295C9.06668 10.4208 9.31407 10.512 9.50505 10.703L11.4582 12.6561V5.20817C11.4582 4.91303 11.558 4.66564 11.7577 4.46598C11.9573 4.26633 12.2047 4.1665 12.4998 4.1665C12.795 4.1665 13.0424 4.26633 13.242 4.46598C13.4417 4.66564 13.5415 4.91303 13.5415 5.20817V12.6561L15.4946 10.703C15.6856 10.512 15.933 10.4208 16.2368 10.4295C16.5406 10.4382 16.788 10.538 16.979 10.729C17.17 10.92 17.2655 11.163 17.2655 11.4582C17.2655 11.7533 17.17 11.9964 16.979 12.1873L13.229 15.9373C13.1248 16.0415 13.012 16.1153 12.8905 16.1587C12.7689 16.2021 12.6387 16.2238 12.4998 16.2238ZM6.24984 20.8332C5.67692 20.8332 5.18647 20.6292 4.77848 20.2212C4.3705 19.8132 4.1665 19.3228 4.1665 18.7498V16.6665C4.1665 16.3714 4.26633 16.124 4.46598 15.9243C4.66564 15.7247 4.91303 15.6248 5.20817 15.6248C5.50331 15.6248 5.75071 15.7247 5.95036 15.9243C6.15001 16.124 6.24984 16.3714 6.24984 16.6665V18.7498H18.7498V16.6665C18.7498 16.3714 18.8497 16.124 19.0493 15.9243C19.249 15.7247 19.4964 15.6248 19.7915 15.6248C20.0866 15.6248 20.334 15.7247 20.5337 15.9243C20.7333 16.124 20.8332 16.3714 20.8332 16.6665V18.7498C20.8332 19.3228 20.6292 19.8132 20.2212 20.2212C19.8132 20.6292 19.3228 20.8332 18.7498 20.8332H6.24984Z" fill="black"/>
</svg>
