<svg width="50" height="50" viewBox="0 0 50 50" fill="none" xmlns="http://www.w3.org/2000/svg">
<path d="M33.3333 24.7916V10.4166C33.3333 9.82631 33.5329 9.33152 33.9322 8.93221C34.3315 8.5329 34.8263 8.33325 35.4166 8.33325C36.0069 8.33325 36.5017 8.5329 36.901 8.93221C37.3003 9.33152 37.4999 9.82631 37.4999 10.4166V20.6249L33.3333 24.7916ZM8.33325 39.5833V10.4166C8.33325 9.82631 8.5329 9.33152 8.93221 8.93221C9.33152 8.5329 9.82631 8.33325 10.4166 8.33325C11.0069 8.33325 11.5017 8.5329 11.901 8.93221C12.3003 9.33152 12.4999 9.82631 12.4999 10.4166V39.5833C12.4999 40.1735 12.3003 40.6683 11.901 41.0676C11.5017 41.4669 11.0069 41.6666 10.4166 41.6666C9.82631 41.6666 9.33152 41.4669 8.93221 41.0676C8.5329 40.6683 8.33325 40.1735 8.33325 39.5833ZM20.8333 14.5833V10.4166C20.8333 9.82631 21.0329 9.33152 21.4322 8.93221C21.8315 8.5329 22.3263 8.33325 22.9166 8.33325C23.5069 8.33325 24.0017 8.5329 24.401 8.93221C24.8003 9.33152 24.9999 9.82631 24.9999 10.4166V14.5833C24.9999 15.1735 24.8003 15.6683 24.401 16.0676C24.0017 16.4669 23.5069 16.6666 22.9166 16.6666C22.3263 16.6666 21.8315 16.4669 21.4322 16.0676C21.0329 15.6683 20.8333 15.1735 20.8333 14.5833ZM20.8333 27.0833V22.9166C20.8333 22.3263 21.0329 21.8315 21.4322 21.4322C21.8315 21.0329 22.3263 20.8333 22.9166 20.8333C23.5069 20.8333 24.0017 21.0329 24.401 21.4322C24.8003 21.8315 24.9999 22.3263 24.9999 22.9166V27.0833C24.9999 27.6735 24.8003 28.1683 24.401 28.5676C24.0017 28.9669 23.5069 29.1666 22.9166 29.1666C22.3263 29.1666 21.8315 28.9669 21.4322 28.5676C21.0329 28.1683 20.8333 27.6735 20.8333 27.0833ZM20.8333 39.5833V35.4166C20.8333 34.8263 21.0329 34.3315 21.4322 33.9322C21.8315 33.5329 22.3263 33.3333 22.9166 33.3333C23.5069 33.3333 24.0017 33.5329 24.401 33.9322C24.8003 34.3315 24.9999 34.8263 24.9999 35.4166V39.5833C24.9999 40.1735 24.8003 40.6683 24.401 41.0676C24.0017 41.4669 23.5069 41.6666 22.9166 41.6666C22.3263 41.6666 21.8315 41.4669 21.4322 41.0676C21.0329 40.6683 20.8333 40.1735 20.8333 39.5833ZM37.9687 26.2499L40.2083 28.4895L32.2916 36.3541V38.5416H34.4791L42.3958 30.677L44.5832 32.8645L36.7187 40.7291C36.4409 41.0069 36.1023 41.2326 35.703 41.4062C35.3037 41.5798 34.8958 41.6666 34.4791 41.6666H30.7291C30.2777 41.6666 29.9044 41.519 29.6093 41.2239C29.3142 40.9287 29.1666 40.5555 29.1666 40.1041V36.3541C29.1666 35.9374 29.2534 35.5294 29.427 35.1301C29.6006 34.7308 29.8263 34.3923 30.1041 34.1145L37.9687 26.2499ZM44.5832 32.8645L37.9687 26.2499L40.9895 23.2291C41.3714 22.8471 41.8576 22.6562 42.4478 22.6562C43.0381 22.6562 43.5242 22.8471 43.9062 23.2291L47.6041 26.927C47.986 27.3089 48.177 27.7951 48.177 28.3853C48.177 28.9756 47.986 29.4617 47.6041 29.8437L44.5832 32.8645Z" fill="black"/>
</svg>
