<svg width="50" height="50" viewBox="0 0 50 50" fill="none" xmlns="http://www.w3.org/2000/svg">
<path d="M25 27.0833C25.5903 27.0833 26.0854 26.8833 26.4854 26.4833C26.884 26.0847 27.0833 25.5902 27.0833 25V16.6145C27.0833 16.0243 26.884 15.5382 26.4854 15.1562C26.0854 14.7743 25.5903 14.5833 25 14.5833C24.4097 14.5833 23.9153 14.7826 23.5167 15.1812C23.1167 15.5812 22.9167 16.0763 22.9167 16.6666V25.052C22.9167 25.6423 23.1167 26.1284 23.5167 26.5104C23.9153 26.8923 24.4097 27.0833 25 27.0833ZM25 35.4166C25.5903 35.4166 26.0854 35.2166 26.4854 34.8166C26.884 34.418 27.0833 33.9236 27.0833 33.3333C27.0833 32.743 26.884 32.2479 26.4854 31.8479C26.0854 31.4493 25.5903 31.25 25 31.25C24.4097 31.25 23.9153 31.4493 23.5167 31.8479C23.1167 32.2479 22.9167 32.743 22.9167 33.3333C22.9167 33.9236 23.1167 34.418 23.5167 34.8166C23.9153 35.2166 24.4097 35.4166 25 35.4166ZM25 45.8333C22.118 45.8333 19.4097 45.2861 16.875 44.1916C14.3403 43.0986 12.1354 41.6145 10.2604 39.7395C8.38541 37.8645 6.90138 35.6597 5.80832 33.125C4.71388 30.5902 4.16666 27.8819 4.16666 25C4.16666 22.118 4.71388 19.4097 5.80832 16.875C6.90138 14.3402 8.38541 12.1354 10.2604 10.2604C12.1354 8.38538 14.3403 6.90065 16.875 5.80621C19.4097 4.71315 22.118 4.16663 25 4.16663C27.8819 4.16663 30.5903 4.71315 33.125 5.80621C35.6597 6.90065 37.8646 8.38538 39.7396 10.2604C41.6146 12.1354 43.0986 14.3402 44.1917 16.875C45.2861 19.4097 45.8333 22.118 45.8333 25C45.8333 27.8819 45.2861 30.5902 44.1917 33.125C43.0986 35.6597 41.6146 37.8645 39.7396 39.7395C37.8646 41.6145 35.6597 43.0986 33.125 44.1916C30.5903 45.2861 27.8819 45.8333 25 45.8333ZM25 41.6666C29.618 41.6666 33.5507 40.0437 36.7979 36.7979C40.0437 33.5507 41.6667 29.618 41.6667 25C41.6667 20.3819 40.0437 16.4493 36.7979 13.202C33.5507 9.95621 29.618 8.33329 25 8.33329C20.3819 8.33329 16.45 9.95621 13.2042 13.202C9.95693 16.4493 8.33332 20.3819 8.33332 25C8.33332 29.618 9.95693 33.5507 13.2042 36.7979C16.45 40.0437 20.3819 41.6666 25 41.6666Z" fill="white"/>
</svg>
