<svg width="82" height="19" viewBox="0 0 82 19" fill="none" xmlns="http://www.w3.org/2000/svg">
<path d="M0.584 18V1.2H11.144V4.08H3.752V8.136H10.568V11.016H3.752V18H0.584ZM13.4043 18V1.2H23.9643V4.08H16.5723V8.136H23.3883V11.016H16.5723V18H13.4043ZM26.2246 18V1.2H37.0246V4.08H29.3926V8.088H36.3526V10.968H29.3926V15.12H37.1686V18H26.2246ZM45.7057 18.336C43.7217 18.336 42.1297 17.792 40.9297 16.704C39.7297 15.6 39.1297 13.936 39.1297 11.712V7.488C39.1297 5.328 39.7297 3.688 40.9297 2.568C42.1297 1.432 43.7217 0.863999 45.7057 0.863999C47.7057 0.863999 49.2977 1.432 50.4817 2.568C51.6817 3.688 52.2817 5.328 52.2817 7.488V11.712C52.2817 13.936 51.6817 15.6 50.4817 16.704C49.2977 17.792 47.7057 18.336 45.7057 18.336ZM45.7057 15.6C46.9057 15.6 47.7857 15.272 48.3457 14.616C48.9217 13.96 49.2097 13.024 49.2097 11.808V7.344C49.2097 6.112 48.8897 5.184 48.2497 4.56C47.6257 3.92 46.7777 3.6 45.7057 3.6C44.6017 3.6 43.7377 3.928 43.1137 4.584C42.5057 5.24 42.2017 6.16 42.2017 7.344V11.808C42.2017 13.072 42.4897 14.024 43.0657 14.664C43.6577 15.288 44.5377 15.6 45.7057 15.6ZM60.7882 18.336C59.5242 18.336 58.4042 18.112 57.4282 17.664C56.4522 17.216 55.6842 16.576 55.1242 15.744C54.5802 14.896 54.3082 13.896 54.3082 12.744V12.312H57.3802V12.648C57.3802 13.544 57.6922 14.264 58.3162 14.808C58.9402 15.336 59.7642 15.6 60.7882 15.6C61.8282 15.6 62.6282 15.352 63.1882 14.856C63.7642 14.36 64.0522 13.736 64.0522 12.984V12.744C64.0522 12.232 63.9242 11.816 63.6682 11.496C63.4122 11.176 63.0682 10.944 62.6362 10.8C62.2042 10.64 61.7162 10.56 61.1722 10.56H57.8122V7.2L63.2362 4.32V3.936H54.7402V1.2H66.6442V5.28L61.5802 7.968V8.352H62.4682C63.2202 8.352 63.9482 8.504 64.6522 8.808C65.3722 9.112 65.9642 9.584 66.4282 10.224C66.8922 10.848 67.1242 11.664 67.1242 12.672V12.96C67.1242 14.048 66.8602 15 66.3322 15.816C65.8042 16.616 65.0602 17.24 64.1002 17.688C63.1562 18.12 62.0522 18.336 60.7882 18.336ZM75.3898 18.336C74.1258 18.336 73.0058 18.112 72.0298 17.664C71.0538 17.216 70.2858 16.576 69.7258 15.744C69.1818 14.896 68.9098 13.896 68.9098 12.744V12.312H71.9818V12.648C71.9818 13.544 72.2938 14.264 72.9178 14.808C73.5418 15.336 74.3658 15.6 75.3898 15.6C76.4298 15.6 77.2298 15.352 77.7898 14.856C78.3658 14.36 78.6538 13.736 78.6538 12.984V12.744C78.6538 12.232 78.5258 11.816 78.2698 11.496C78.0138 11.176 77.6698 10.944 77.2378 10.8C76.8058 10.64 76.3178 10.56 75.7738 10.56H72.4138V7.2L77.8378 4.32V3.936H69.3418V1.2H81.2458V5.28L76.1818 7.968V8.352H77.0698C77.8218 8.352 78.5498 8.504 79.2538 8.808C79.9738 9.112 80.5658 9.584 81.0298 10.224C81.4938 10.848 81.7258 11.664 81.7258 12.672V12.96C81.7258 14.048 81.4618 15 80.9338 15.816C80.4058 16.616 79.6618 17.24 78.7018 17.688C77.7578 18.12 76.6538 18.336 75.3898 18.336Z" fill="white"/>
</svg>
