<svg width="23" height="20" viewBox="0 0 23 20" fill="none" xmlns="http://www.w3.org/2000/svg">
<path fill-rule="evenodd" clip-rule="evenodd" d="M7.86041 13.8417C8.36929 13.8417 8.80629 13.7334 9.10241 13.4917C9.32858 13.3042 9.45316 13.0284 9.45412 12.7017C9.45412 12.3767 9.28929 12.1009 9.04587 11.9326C8.79 11.7551 8.4105 11.6667 7.8767 11.6667C7.48582 11.6621 7.09514 11.6849 6.7085 11.7351V15.0151H7.56525V13.8267C7.66312 13.8377 7.76174 13.8427 7.86041 13.8417ZM10.9875 15.0501C11.7359 15.0501 12.3483 14.9117 12.7508 14.6209C13.1188 14.3501 13.3862 13.9109 13.3862 13.2751C13.3862 12.6876 13.137 12.2784 12.7393 12.0217C12.3713 11.7801 11.8998 11.6667 11.1743 11.6667C10.7835 11.6637 10.3929 11.6868 10.0061 11.7359V15.0001C10.2217 15.0251 10.539 15.0501 10.9875 15.0501ZM14.8237 12.3084H16.2918V11.6917H13.9554V15.0159H14.8237V13.6792H16.196V13.0676H14.8237V12.3084ZM11.2644 12.2434C11.0727 12.2434 10.9482 12.2584 10.8744 12.2734V14.4484C10.9482 14.4634 11.067 14.4634 11.1743 14.4634C11.9573 14.4684 12.4671 14.0934 12.4671 13.3001C12.4729 12.6084 12.0081 12.2434 11.2644 12.2434ZM7.5662 12.2634C7.62754 12.2484 7.74637 12.2334 7.9227 12.2334C8.35395 12.2334 8.59737 12.4167 8.59737 12.7217C8.59737 13.0626 8.31466 13.2642 7.85562 13.2642C7.73008 13.2642 7.63904 13.2601 7.5662 13.2451V12.2634Z" fill="black"/>
<path d="M5.75016 18.3334C5.22308 18.3334 4.77202 18.1704 4.397 17.8442C4.02133 17.5176 3.8335 17.1251 3.8335 16.6667V3.33341C3.8335 2.87508 4.02133 2.48258 4.397 2.15591C4.77202 1.8298 5.22308 1.66675 5.75016 1.66675H12.6262C12.8818 1.66675 13.1255 1.70841 13.3574 1.79175C13.5887 1.87508 13.7922 1.99314 13.9679 2.14591L18.6158 6.18758C18.7915 6.34036 18.9272 6.5173 19.0231 6.71842C19.1189 6.92008 19.1668 7.13203 19.1668 7.35425V16.6667C19.1668 17.1251 18.9793 17.5176 18.6043 17.8442C18.2286 18.1704 17.7772 18.3334 17.2502 18.3334H5.75016ZM5.75016 16.2501C5.75016 16.4802 5.96469 16.6667 6.22933 16.6667H16.771C17.0356 16.6667 17.2502 16.4802 17.2502 16.2501V7.50008H13.4168C13.1453 7.50008 12.9179 7.42008 12.7345 7.26008C12.5505 7.10064 12.4585 6.90286 12.4585 6.66675V3.33341H6.22933C5.96469 3.33341 5.75016 3.51996 5.75016 3.75008V16.2501Z" fill="black"/>
</svg>
