<svg width="20" height="20" viewBox="0 0 20 20" fill="none" xmlns="http://www.w3.org/2000/svg">
<path d="M8.33183 12.3067H7.41266V15.0351H6.6485V12.3067H5.74433V11.6667H8.33183V12.3067ZM10.6027 15.0351L10.2985 14.4259C10.1735 14.1909 10.0935 14.0159 9.99933 13.8209H9.9885C9.91933 14.0151 9.83433 14.1901 9.7285 14.4259L9.44933 15.0351H8.5785L9.55433 13.3309L8.6135 11.6667H9.4885L9.7835 12.2817C9.88433 12.4859 9.9585 12.6509 10.0385 12.8409H10.0493C10.1293 12.6259 10.1943 12.4759 10.2793 12.2817L10.5635 11.6667H11.4327L10.4835 13.3109L11.4818 15.0351H10.6027ZM14.256 12.3067H13.336V15.0351H12.5718V12.3067H11.6677V11.6667H14.2552L14.256 12.3067Z" fill="black"/>
<path d="M5.00016 18.3334C4.54183 18.3334 4.14961 18.1704 3.8235 17.8442C3.49683 17.5176 3.3335 17.1251 3.3335 16.6667V3.33341C3.3335 2.87508 3.49683 2.48258 3.8235 2.15591C4.14961 1.8298 4.54183 1.66675 5.00016 1.66675H10.9793C11.2016 1.66675 11.4135 1.70841 11.6152 1.79175C11.8163 1.87508 11.9932 1.99314 12.146 2.14591L16.1877 6.18758C16.3404 6.34036 16.4585 6.5173 16.5418 6.71842C16.6252 6.92008 16.6668 7.13203 16.6668 7.35425V16.6667C16.6668 17.1251 16.5038 17.5176 16.1777 17.8442C15.851 18.1704 15.4585 18.3334 15.0002 18.3334H5.00016ZM5.00016 16.2501C5.00016 16.4802 5.18671 16.6667 5.41683 16.6667H14.5835C14.8136 16.6667 15.0002 16.4802 15.0002 16.2501V7.50008H11.6668C11.4307 7.50008 11.2329 7.42008 11.0735 7.26008C10.9135 7.10064 10.8335 6.90286 10.8335 6.66675V3.33341H5.41683C5.18671 3.33341 5.00016 3.51996 5.00016 3.75008V16.2501Z" fill="black"/>
</svg>
