<svg width="100" height="100" viewBox="0 0 100 100" fill="none" xmlns="http://www.w3.org/2000/svg">
<path d="M14.583 83.3332C12.8469 83.3332 11.3712 82.7255 10.1559 81.5103C8.94065 80.295 8.33301 78.8193 8.33301 77.0832V31.2498C8.33301 29.5137 8.94065 28.038 10.1559 26.8228C11.3712 25.6075 12.8469 24.9998 14.583 24.9998H41.0413L49.3747 16.6665H85.4163C87.1525 16.6665 88.6281 17.2741 89.8434 18.4894C91.0587 19.7047 91.6663 21.1804 91.6663 22.9165V77.0832C91.6663 78.8193 91.0587 80.295 89.8434 81.5103C88.6281 82.7255 87.1525 83.3332 85.4163 83.3332H14.583ZM20.7288 54.1665H45.833V29.0623L20.7288 54.1665ZM14.583 51.4582L34.7913 31.2498H14.583V51.4582ZM14.583 60.4165V77.0832H85.4163V22.9165H52.083V54.1665C52.083 55.9026 51.4754 57.3783 50.2601 58.5936C49.0448 59.8089 47.5691 60.4165 45.833 60.4165H14.583Z" fill="#002855"/>
</svg>
