<svg width="50" height="50" viewBox="0 0 50 50" fill="none" xmlns="http://www.w3.org/2000/svg">
<path d="M23.9583 45.8333C20.7639 45.8333 18.0556 44.7222 15.8333 42.5C13.6111 40.2777 12.5 37.5694 12.5 34.375V12.5C12.5 10.2083 13.316 8.24649 14.9479 6.61454C16.5799 4.9826 18.5417 4.16663 20.8333 4.16663C23.125 4.16663 25.0868 4.9826 26.7188 6.61454C28.3507 8.24649 29.1667 10.2083 29.1667 12.5V32.2916C29.1667 33.75 28.6632 34.9826 27.6563 35.9895C26.6493 36.9965 25.4167 37.5 23.9583 37.5C22.5 37.5 21.2674 36.9965 20.2604 35.9895C19.2535 34.9826 18.75 33.75 18.75 32.2916V12.5H21.875V32.2916C21.875 32.8819 22.0747 33.3767 22.474 33.776C22.8733 34.1753 23.3681 34.375 23.9583 34.375C24.5486 34.375 25.0434 34.1753 25.4427 33.776C25.842 33.3767 26.0417 32.8819 26.0417 32.2916V12.5C26.0417 11.0416 25.5382 9.80899 24.5313 8.80204C23.5243 7.7951 22.2917 7.29163 20.8333 7.29163C19.375 7.29163 18.1424 7.7951 17.1354 8.80204C16.1285 9.80899 15.625 11.0416 15.625 12.5V34.375C15.625 36.6666 16.441 38.6284 18.0729 40.2604C19.7049 41.8923 21.6667 42.7083 23.9583 42.7083C26.25 42.7083 28.2118 41.8923 29.8438 40.2604C31.4757 38.6284 32.2917 36.6666 32.2917 34.375V12.5H35.4167V34.375C35.4167 37.5694 34.3056 40.2777 32.0833 42.5C29.8611 44.7222 27.1528 45.8333 23.9583 45.8333Z" fill="#002855"/>
</svg>
