<svg width="20" height="20" viewBox="0 0 20 20" fill="none" xmlns="http://www.w3.org/2000/svg">
<path d="M12.155 2.1549C11.8424 1.84234 11.4185 1.66675 10.9765 1.66675H5.00016C4.07516 1.66675 3.3335 2.41675 3.3335 3.33341V16.6667C3.3335 17.5917 4.07516 18.3334 5.00016 18.3334H15.0002C15.9252 18.3334 16.6668 17.5917 16.6668 16.6667V7.3571C16.6668 6.91508 16.4912 6.49115 16.1787 6.17859L12.155 2.1549ZM15.0002 16.2501C15.0002 16.4802 14.8136 16.6667 14.5835 16.6667H5.41683C5.18671 16.6667 5.00016 16.4802 5.00016 16.2501V3.75008C5.00016 3.51996 5.18671 3.33341 5.41683 3.33341H10.8335V6.66675C10.8335 7.12699 11.2066 7.50008 11.6668 7.50008H15.0002V16.2501ZM14.4585 8.33342L12.7085 15.8334H11.5418L10.0418 10.1751L8.54183 15.8334H7.37516L5.54183 8.33342H6.79183L7.9585 14.0084L9.4585 8.33342H10.5418L12.0418 14.0084L13.2085 8.33342H14.4585Z" fill="black"/>
</svg>
