<svg width="50" height="50" viewBox="0 0 50 50" fill="none" xmlns="http://www.w3.org/2000/svg">
<path d="M41.9643 24.8393V9.82143C41.9643 7.85714 40.375 6.25 38.3929 6.25H9.82143C7.85714 6.25 6.25 7.83929 6.25 9.82143V39.4495C6.25 40.3775 7.37202 40.8423 8.02824 40.186L13.3929 34.8214H19.2679C20.8036 39.9821 25.5893 43.75 31.25 43.75C38.1429 43.75 43.75 38.1607 43.75 31.25C43.75 28.9107 43.0893 26.7143 41.9643 24.8393ZM12.3422 31.25C12.0659 31.25 11.801 31.3597 11.6056 31.5551L10.2482 32.9125C10.0907 33.07 9.82143 32.9585 9.82143 32.7357V10.8631C9.82143 10.2878 10.2878 9.82143 10.8631 9.82143H37.3512C37.9265 9.82143 38.3929 10.2878 38.3929 10.8631V21C36.3571 19.5893 33.9286 18.75 31.25 18.75C27.8571 18.75 24.7679 20.125 22.5179 22.3214H15.1786C14.1923 22.3214 13.3929 23.1209 13.3929 24.1071C13.3929 25.0934 14.1923 25.8929 15.1786 25.8929H19.9821C19.1964 27.5179 18.75 29.3393 18.75 31.25H12.3422ZM31.25 39.9107C26.4643 39.9107 22.5893 36.0357 22.5893 31.25C22.5893 26.4643 26.4643 22.5893 31.25 22.5893C36.0179 22.5893 39.9107 26.4643 39.9107 31.25C39.9107 36.0357 36.0179 39.9107 31.25 39.9107ZM34.8214 16.9643C34.8214 17.9505 34.0219 18.75 33.0357 18.75H15.1786C14.1924 18.75 13.3929 17.9505 13.3929 16.9643C13.3929 15.9781 14.1923 15.1786 15.1786 15.1786H33.0357C34.0219 15.1786 34.8214 15.9781 34.8214 16.9643ZM32.1429 30.3274C32.1429 30.6994 32.3412 31.0432 32.6633 31.2293L35.3401 32.7762C35.9808 33.1464 36.2004 33.9658 35.8306 34.6068C35.4606 35.248 34.6409 35.468 33.9996 35.0981L30.5067 33.0834C29.8617 32.7114 29.4643 32.0234 29.4643 31.2788V27.2321C29.4643 26.4925 30.0639 25.8929 30.8036 25.8929C31.5432 25.8929 32.1429 26.4925 32.1429 27.2321V30.3274Z" fill="black"/>
</svg>
