<svg width="34" height="37" viewBox="0 0 34 37" fill="none" xmlns="http://www.w3.org/2000/svg">
<path d="M4.49992 32.5834H10.7499V22.1667C10.7499 21.5764 10.9496 21.0816 11.3489 20.6823C11.7482 20.283 12.243 20.0834 12.8333 20.0834H21.1666C21.7569 20.0834 22.2517 20.283 22.651 20.6823C23.0503 21.0816 23.2499 21.5764 23.2499 22.1667V32.5834H29.4999V13.8334L16.9999 4.45835L4.49992 13.8334V32.5834ZM0.333252 32.5834V13.8334C0.333252 13.1736 0.480821 12.5486 0.77596 11.9584C1.0711 11.3681 1.47909 10.882 1.99992 10.5L14.4999 1.12502C15.2291 0.569465 16.0624 0.291687 16.9999 0.291687C17.9374 0.291687 18.7708 0.569465 19.4999 1.12502L31.9999 10.5C32.5208 10.882 32.9287 11.3681 33.2239 11.9584C33.519 12.5486 33.6666 13.1736 33.6666 13.8334V32.5834C33.6666 33.7292 33.2586 34.7101 32.4426 35.5261C31.6267 36.342 30.6458 36.75 29.4999 36.75H21.1666C20.5763 36.75 20.0815 36.5504 19.6822 36.1511C19.2829 35.7518 19.0833 35.257 19.0833 34.6667V24.25H14.9166V34.6667C14.9166 35.257 14.7169 35.7518 14.3176 36.1511C13.9183 36.5504 13.4235 36.75 12.8333 36.75H4.49992C3.35409 36.75 2.37318 36.342 1.55721 35.5261C0.741238 34.7101 0.333252 33.7292 0.333252 32.5834Z" fill="#002855"/>
</svg>
