<svg width="50" height="50" viewBox="0 0 50 50" fill="none" xmlns="http://www.w3.org/2000/svg">
<path d="M25 35.4166C25.5903 35.4166 26.0851 35.217 26.4844 34.8177C26.8837 34.4184 27.0833 33.9236 27.0833 33.3333V25C27.0833 24.4097 26.8837 23.9149 26.4844 23.5156C26.0851 23.1163 25.5903 22.9166 25 22.9166C24.4097 22.9166 23.9149 23.1163 23.5156 23.5156C23.1163 23.9149 22.9167 24.4097 22.9167 25V33.3333C22.9167 33.9236 23.1163 34.4184 23.5156 34.8177C23.9149 35.217 24.4097 35.4166 25 35.4166ZM25 18.75C25.5903 18.75 26.0851 18.5503 26.4844 18.151C26.8837 17.7517 27.0833 17.2569 27.0833 16.6666C27.0833 16.0763 26.8837 15.5816 26.4844 15.1823C26.0851 14.7829 25.5903 14.5833 25 14.5833C24.4097 14.5833 23.9149 14.7829 23.5156 15.1823C23.1163 15.5816 22.9167 16.0763 22.9167 16.6666C22.9167 17.2569 23.1163 17.7517 23.5156 18.151C23.9149 18.5503 24.4097 18.75 25 18.75ZM25 45.8333C22.118 45.8333 19.4097 45.2864 16.875 44.1927C14.3403 43.0989 12.1354 41.6145 10.2604 39.7395C8.38541 37.8645 6.90103 35.6597 5.80728 33.125C4.71353 30.5902 4.16666 27.8819 4.16666 25C4.16666 22.118 4.71353 19.4097 5.80728 16.875C6.90103 14.3402 8.38541 12.1354 10.2604 10.2604C12.1354 8.38538 14.3403 6.901 16.875 5.80725C19.4097 4.7135 22.118 4.16663 25 4.16663C27.8819 4.16663 30.5903 4.7135 33.125 5.80725C35.6597 6.901 37.8646 8.38538 39.7396 10.2604C41.6146 12.1354 43.0989 14.3402 44.1927 16.875C45.2864 19.4097 45.8333 22.118 45.8333 25C45.8333 27.8819 45.2864 30.5902 44.1927 33.125C43.0989 35.6597 41.6146 37.8645 39.7396 39.7395C37.8646 41.6145 35.6597 43.0989 33.125 44.1927C30.5903 45.2864 27.8819 45.8333 25 45.8333ZM25 41.6666C29.6528 41.6666 33.5937 40.052 36.8229 36.8229C40.0521 33.5937 41.6667 29.6527 41.6667 25C41.6667 20.3472 40.0521 16.4062 36.8229 13.177C33.5937 9.94788 29.6528 8.33329 25 8.33329C20.3472 8.33329 16.4062 9.94788 13.1771 13.177C9.94791 16.4062 8.33332 20.3472 8.33332 25C8.33332 29.6527 9.94791 33.5937 13.1771 36.8229C16.4062 40.052 20.3472 41.6666 25 41.6666Z" fill="white"/>
</svg>
