<svg width="42" height="42" viewBox="0 0 42 42" fill="none" xmlns="http://www.w3.org/2000/svg">
<path d="M21 41.8333C18.1528 41.8333 15.4618 41.2865 12.9271 40.1927C10.3924 39.099 8.17884 37.6059 6.28648 35.7135C4.39412 33.8212 2.90106 31.6076 1.80731 29.0729C0.713562 26.5382 0.166687 23.8472 0.166687 21C0.166687 18.1181 0.713562 15.4184 1.80731 12.901C2.90106 10.3837 4.39412 8.17882 6.28648 6.28646C8.17884 4.39409 10.3924 2.90104 12.9271 1.80729C15.4618 0.713539 18.1528 0.166664 21 0.166664C23.882 0.166664 26.5816 0.713539 29.099 1.80729C31.6163 2.90104 33.8212 4.39409 35.7136 6.28646C37.6059 8.17882 39.099 10.3837 40.1927 12.901C41.2865 15.4184 41.8334 18.1181 41.8334 21C41.8334 23.8472 41.2865 26.5382 40.1927 29.0729C39.099 31.6076 37.6059 33.8212 35.7136 35.7135C33.8212 37.6059 31.6163 39.099 29.099 40.1927C26.5816 41.2865 23.882 41.8333 21 41.8333ZM21 37.5625C21.9028 36.3125 22.684 35.0104 23.3438 33.6562C24.0035 32.3021 24.5417 30.8611 24.9584 29.3333H17.0417C17.4584 30.8611 17.9965 32.3021 18.6563 33.6562C19.316 35.0104 20.0972 36.3125 21 37.5625ZM15.5834 36.7292C14.9584 35.5833 14.4115 34.3941 13.9427 33.1615C13.474 31.9288 13.0834 30.6528 12.7709 29.3333H6.62502C7.63196 31.0694 8.89064 32.5799 10.4011 33.8646C11.9115 35.1493 13.6389 36.1042 15.5834 36.7292ZM26.4167 36.7292C28.3611 36.1042 30.0886 35.1493 31.599 33.8646C33.1094 32.5799 34.3681 31.0694 35.375 29.3333H29.2292C28.9167 30.6528 28.5261 31.9288 28.0573 33.1615C27.5886 34.3941 27.0417 35.5833 26.4167 36.7292ZM4.85419 25.1667H11.9375C11.8334 24.4722 11.7552 23.7865 11.7031 23.1094C11.6511 22.4323 11.625 21.7292 11.625 21C11.625 20.2708 11.6511 19.5677 11.7031 18.8906C11.7552 18.2135 11.8334 17.5278 11.9375 16.8333H4.85419C4.68058 17.5278 4.55037 18.2135 4.46356 18.8906C4.37676 19.5677 4.33335 20.2708 4.33335 21C4.33335 21.7292 4.37676 22.4323 4.46356 23.1094C4.55037 23.7865 4.68058 24.4722 4.85419 25.1667ZM16.1042 25.1667H25.8959C26 24.4722 26.0781 23.7865 26.1302 23.1094C26.1823 22.4323 26.2084 21.7292 26.2084 21C26.2084 20.2708 26.1823 19.5677 26.1302 18.8906C26.0781 18.2135 26 17.5278 25.8959 16.8333H16.1042C16 17.5278 15.9219 18.2135 15.8698 18.8906C15.8177 19.5677 15.7917 20.2708 15.7917 21C15.7917 21.7292 15.8177 22.4323 15.8698 23.1094C15.9219 23.7865 16 24.4722 16.1042 25.1667ZM30.0625 25.1667H37.1459C37.3195 24.4722 37.4497 23.7865 37.5365 23.1094C37.6233 22.4323 37.6667 21.7292 37.6667 21C37.6667 20.2708 37.6233 19.5677 37.5365 18.8906C37.4497 18.2135 37.3195 17.5278 37.1459 16.8333H30.0625C30.1667 17.5278 30.2448 18.2135 30.2969 18.8906C30.349 19.5677 30.375 20.2708 30.375 21C30.375 21.7292 30.349 22.4323 30.2969 23.1094C30.2448 23.7865 30.1667 24.4722 30.0625 25.1667ZM29.2292 12.6667H35.375C34.3681 10.9306 33.1094 9.42014 31.599 8.13541C30.0886 6.85069 28.3611 5.89583 26.4167 5.27083C27.0417 6.41666 27.5886 7.6059 28.0573 8.83854C28.5261 10.0712 28.9167 11.3472 29.2292 12.6667ZM17.0417 12.6667H24.9584C24.5417 11.1389 24.0035 9.69791 23.3438 8.34375C22.684 6.98958 21.9028 5.6875 21 4.4375C20.0972 5.6875 19.316 6.98958 18.6563 8.34375C17.9965 9.69791 17.4584 11.1389 17.0417 12.6667ZM6.62502 12.6667H12.7709C13.0834 11.3472 13.474 10.0712 13.9427 8.83854C14.4115 7.6059 14.9584 6.41666 15.5834 5.27083C13.6389 5.89583 11.9115 6.85069 10.4011 8.13541C8.89064 9.42014 7.63196 10.9306 6.62502 12.6667Z" fill="#002855"/>
</svg>
