<svg width="50" height="50" viewBox="0 0 50 50" fill="none" xmlns="http://www.w3.org/2000/svg">
<path fill-rule="evenodd" clip-rule="evenodd" d="M18.5 25C22.9208 25 26.5 21.4583 26.5 17.0833C26.5 12.7083 22.9208 9.1687 18.5 9.1687C14.0792 9.1687 10.5 12.7083 10.5 17.0833C10.5 21.4583 14.0792 25 18.5 25ZM18.5 13.125C20.7 13.125 22.5 14.9041 22.5 17.0833C22.5 19.2604 20.7 21.0437 18.5 21.0437C16.3 21.0437 14.5 19.2604 14.5 17.0833C14.5 14.9041 16.3 13.125 18.5 13.125ZM2.5 34.8958V40.8333H26.5V36.875H6.5V34.9145C6.9 33.4895 13.1 30.9375 18.5 30.9375C21.2521 30.9375 24.2042 31.6062 26.5 32.4395V28.277C23.6667 27.4166 20.6521 26.9791 18.5 26.9791C13.1604 26.9791 2.5 29.6333 2.5 34.8958ZM35.25 35.9375C35.25 36.2251 35.4832 36.4583 35.7708 36.4583H42.7292C43.0168 36.4583 43.25 36.2251 43.25 35.9375V21.1458C43.25 20.8581 43.0168 20.625 42.7292 20.625H35.7708C35.4832 20.625 35.25 20.8581 35.25 21.1458V35.9375ZM45.25 16.6666H33.25C32.25 16.6666 31.25 17.6562 31.25 18.6458V38.4375C31.25 39.427 32.25 40.4166 33.25 40.4166H45.25C46.25 40.4166 47.25 39.427 47.25 38.4375V18.6458C47.25 17.6562 46.25 16.6666 45.25 16.6666Z" fill="black"/>
</svg>
