<svg width="50" height="50" viewBox="0 0 50 50" fill="none" xmlns="http://www.w3.org/2000/svg">
<path d="M47.9166 8.33335V20.8333M47.9166 20.8333H35.4166M47.9166 20.8333L38.2499 11.75C36.0109 9.50984 33.2408 7.87336 30.1982 6.99329C27.1557 6.11323 23.9397 6.01825 20.8505 6.71722C17.7613 7.41619 14.8995 8.88634 12.5321 10.9905C10.1648 13.0946 8.36902 15.7642 7.31242 18.75M2.08325 41.6667V29.1667M2.08325 29.1667H14.5833M2.08325 29.1667L11.7499 38.25C13.989 40.4902 16.759 42.1267 19.8016 43.0067C22.8442 43.8868 26.0601 43.9818 29.1493 43.2828C32.2385 42.5838 35.1003 41.1137 37.4677 39.0096C39.8351 36.9054 41.6308 34.2359 42.6874 31.25" stroke="#002855" stroke-width="4" stroke-linecap="round" stroke-linejoin="round"/>
</svg>
