<svg width="50" height="50" viewBox="0 0 50 50" fill="none" xmlns="http://www.w3.org/2000/svg">
<path d="M12.4999 41.6668C11.3541 41.6668 10.3735 41.2592 9.55825 40.4439C8.74158 39.6272 8.33325 38.646 8.33325 37.5002V22.9168C8.33325 21.771 8.74158 20.7897 9.55825 19.9731C10.3735 19.1578 11.3541 18.7502 12.4999 18.7502C13.6458 18.7502 14.6263 19.1578 15.4416 19.9731C16.2583 20.7897 16.6666 21.771 16.6666 22.9168V37.5002C16.6666 38.646 16.2583 39.6272 15.4416 40.4439C14.6263 41.2592 13.6458 41.6668 12.4999 41.6668ZM24.9999 41.6668C23.8541 41.6668 22.8735 41.2592 22.0583 40.4439C21.2416 39.6272 20.8333 38.646 20.8333 37.5002V12.5002C20.8333 11.3543 21.2416 10.3738 22.0583 9.5585C22.8735 8.74183 23.8541 8.3335 24.9999 8.3335C26.1458 8.3335 27.127 8.74183 27.9437 9.5585C28.7589 10.3738 29.1666 11.3543 29.1666 12.5002V37.5002C29.1666 38.646 28.7589 39.6272 27.9437 40.4439C27.127 41.2592 26.1458 41.6668 24.9999 41.6668ZM37.4999 41.6668C36.3541 41.6668 35.3728 41.2592 34.5562 40.4439C33.7409 39.6272 33.3333 38.646 33.3333 37.5002V31.2502C33.3333 30.1043 33.7409 29.1231 34.5562 28.3064C35.3728 27.4911 36.3541 27.0835 37.4999 27.0835C38.6458 27.0835 39.627 27.4911 40.4437 28.3064C41.2589 29.1231 41.6666 30.1043 41.6666 31.2502V37.5002C41.6666 38.646 41.2589 39.6272 40.4437 40.4439C39.627 41.2592 38.6458 41.6668 37.4999 41.6668Z" fill="black"/>
</svg>
