<svg width="9" height="7" viewBox="0 0 9 7" fill="none" xmlns="http://www.w3.org/2000/svg">
<path d="M0.200819 0.274999C0.334555 0.0916658 0.504763 -4.57148e-07 0.711446 -4.44763e-07C0.918129 -4.32378e-07 1.08834 0.0916659 1.22207 0.274999L4.067 4.175L6.91193 0.275C7.04566 0.0916662 7.21587 -5.50035e-08 7.42256 -4.26186e-08C7.62924 -3.02337e-08 7.79945 0.0916663 7.93319 0.275C8.06692 0.458333 8.13379 0.691666 8.13379 0.974999C8.13379 1.25833 8.06692 1.49167 7.93319 1.675L4.57763 6.275C4.50468 6.375 4.42566 6.446 4.34055 6.488C4.25545 6.52933 4.16426 6.55 4.067 6.55C3.96974 6.55 3.87856 6.52933 3.79345 6.488C3.70835 6.446 3.62932 6.375 3.55637 6.275L0.200819 1.675C0.0670833 1.49167 0.000213583 1.25833 0.000213592 0.974999C0.000213601 0.691666 0.0670833 0.458332 0.200819 0.274999Z" fill="#002855"/>
</svg>
