<svg width="32" height="29" viewBox="0 0 32 29" fill="none" xmlns="http://www.w3.org/2000/svg">
<path d="M26.1333 25.375L17.7333 17.7625C17.0667 18.2458 16.3 18.6285 15.4333 18.9104C14.5667 19.1924 13.6444 19.3333 12.6667 19.3333C10.2444 19.3333 8.19444 18.5731 6.51667 17.0526C4.83889 15.5321 4 13.6743 4 11.4792C4 9.28403 4.83889 7.42622 6.51667 5.90573C8.19444 4.38524 10.2444 3.625 12.6667 3.625C15.0889 3.625 17.1389 4.38524 18.8167 5.90573C20.4944 7.42622 21.3333 9.28403 21.3333 11.4792C21.3333 12.3653 21.1778 13.201 20.8667 13.9865C20.5556 14.7719 20.1333 15.4667 19.6 16.0708L28 23.6833L26.1333 25.375ZM12.6667 16.9167C14.3333 16.9167 15.75 16.388 16.9167 15.3307C18.0833 14.2734 18.6667 12.9896 18.6667 11.4792C18.6667 9.96875 18.0833 8.6849 16.9167 7.6276C15.75 6.57031 14.3333 6.04167 12.6667 6.04167C11 6.04167 9.58333 6.57031 8.41667 7.6276C7.25 8.6849 6.66667 9.96875 6.66667 11.4792C6.66667 12.9896 7.25 14.2734 8.41667 15.3307C9.58333 16.388 11 16.9167 12.6667 16.9167Z" fill="#002855"/>
</svg>
