<svg width="200" height="200" viewBox="0 0 200 200" fill="none" xmlns="http://www.w3.org/2000/svg">
<path d="M100 100C90.8334 100 82.9862 96.7361 76.4584 90.2083C69.9306 83.6805 66.6667 75.8333 66.6667 66.6666C66.6667 57.5 69.9306 49.6528 76.4584 43.125C82.9862 36.5972 90.8334 33.3333 100 33.3333C109.167 33.3333 117.014 36.5972 123.542 43.125C130.069 49.6528 133.333 57.5 133.333 66.6666C133.333 75.8333 130.069 83.6805 123.542 90.2083C117.014 96.7361 109.167 100 100 100ZM150 166.667H50C45.4167 166.667 41.4945 165.036 38.2334 161.775C34.9667 158.508 33.3334 154.583 33.3334 150V143.333C33.3334 138.611 34.55 134.269 36.9834 130.308C39.4112 126.353 42.6389 123.333 46.6667 121.25C55.2778 116.944 64.0278 113.714 72.9167 111.558C81.8056 109.408 90.8334 108.333 100 108.333C109.167 108.333 118.194 109.408 127.083 111.558C135.972 113.714 144.722 116.944 153.333 121.25C157.361 123.333 160.589 126.353 163.017 130.308C165.45 134.269 166.667 138.611 166.667 143.333V150C166.667 154.583 165.036 158.508 161.775 161.775C158.508 165.036 154.583 166.667 150 166.667ZM50 150H150V143.333C150 141.806 149.62 140.417 148.858 139.167C148.092 137.917 147.083 136.944 145.833 136.25C138.333 132.5 130.764 129.686 123.125 127.808C115.486 125.936 107.778 125 100 125C92.2223 125 84.5139 125.936 76.875 127.808C69.2362 129.686 61.6667 132.5 54.1667 136.25C52.9167 136.944 51.9112 137.917 51.15 139.167C50.3834 140.417 50 141.806 50 143.333V150ZM100 83.3333C104.583 83.3333 108.508 81.7 111.775 78.4333C115.036 75.1722 116.667 71.25 116.667 66.6666C116.667 62.0833 115.036 58.1611 111.775 54.9C108.508 51.6333 104.583 50 100 50C95.4167 50 91.4945 51.6333 88.2334 54.9C84.9667 58.1611 83.3334 62.0833 83.3334 66.6666C83.3334 71.25 84.9667 75.1722 88.2334 78.4333C91.4945 81.7 95.4167 83.3333 100 83.3333Z" fill="#002855"/>
</svg>
