<svg width="20" height="20" viewBox="0 0 20 20" fill="none" xmlns="http://www.w3.org/2000/svg">
<path d="M7.50016 15.0001H10.8335C11.0696 15.0001 11.2675 14.9202 11.4272 14.7605C11.587 14.6008 11.6668 14.4029 11.6668 14.1667V13.3334L12.7293 13.8959C12.8682 13.9654 13.0036 13.9584 13.1356 13.8751C13.2675 13.7917 13.3335 13.6737 13.3335 13.5209V11.4792C13.3335 11.3265 13.2675 11.2084 13.1356 11.1251C13.0036 11.0417 12.8682 11.0348 12.7293 11.1042L11.6668 11.6667V10.8334C11.6668 10.5973 11.587 10.3994 11.4272 10.2397C11.2675 10.0799 11.0696 10.0001 10.8335 10.0001H7.50016C7.26405 10.0001 7.06613 10.0799 6.90641 10.2397C6.74669 10.3994 6.66683 10.5973 6.66683 10.8334V14.1667C6.66683 14.4029 6.74669 14.6008 6.90641 14.7605C7.06613 14.9202 7.26405 15.0001 7.50016 15.0001ZM5.00016 18.3334C4.54183 18.3334 4.14947 18.1702 3.82308 17.8438C3.49669 17.5174 3.3335 17.1251 3.3335 16.6667V3.33341C3.3335 2.87508 3.49669 2.48272 3.82308 2.15633C4.14947 1.82994 4.54183 1.66675 5.00016 1.66675H10.9793C11.2016 1.66675 11.4134 1.70841 11.6147 1.79175C11.8161 1.87508 11.9932 1.99314 12.146 2.14591L16.1877 6.18758C16.3404 6.34036 16.4585 6.51744 16.5418 6.71883C16.6252 6.92022 16.6668 7.13203 16.6668 7.35425V16.6667C16.6668 17.1251 16.5036 17.5174 16.1772 17.8438C15.8509 18.1702 15.4585 18.3334 15.0002 18.3334H5.00016ZM10.8335 3.33341H5.41683C5.18671 3.33341 5.00016 3.51996 5.00016 3.75008V16.2501C5.00016 16.4802 5.18671 16.6667 5.41683 16.6667H14.5835C14.8136 16.6667 15.0002 16.4802 15.0002 16.2501V7.50008H11.6668C11.4307 7.50008 11.2328 7.42022 11.0731 7.2605C10.9134 7.10078 10.8335 6.90286 10.8335 6.66675V3.33341Z" fill="black"/>
</svg>
