<svg width="50" height="50" viewBox="0 0 50 50" fill="none" xmlns="http://www.w3.org/2000/svg">
<path d="M5.67707 43.75C4.87846 43.75 4.28818 43.4028 3.90624 42.7083C3.5243 42.0139 3.5243 41.3194 3.90624 40.625L23.1771 7.29167C23.559 6.59722 24.1667 6.25 25 6.25C25.8333 6.25 26.441 6.59722 26.8229 7.29167L46.0937 40.625C46.4757 41.3194 46.4757 42.0139 46.0937 42.7083C45.7118 43.4028 45.1215 43.75 44.3229 43.75H5.67707ZM25 20.8333C24.4097 20.8333 23.9153 21.0326 23.5167 21.4312C23.1167 21.8312 22.9167 22.3264 22.9167 22.9167V29.1667C22.9167 29.7569 23.1167 30.2514 23.5167 30.65C23.9153 31.05 24.4097 31.25 25 31.25C25.5903 31.25 26.0854 31.05 26.4854 30.65C26.884 30.2514 27.0833 29.7569 27.0833 29.1667V22.9167C27.0833 22.3264 26.884 21.8312 26.4854 21.4312C26.0854 21.0326 25.5903 20.8333 25 20.8333ZM25 37.5C25.5903 37.5 26.0854 37.3 26.4854 36.9C26.884 36.5014 27.0833 36.0069 27.0833 35.4167C27.0833 34.8264 26.884 34.3319 26.4854 33.9333C26.0854 33.5333 25.5903 33.3333 25 33.3333C24.4097 33.3333 23.9153 33.5333 23.5167 33.9333C23.1167 34.3319 22.9167 34.8264 22.9167 35.4167C22.9167 36.0069 23.1167 36.5014 23.5167 36.9C23.9153 37.3 24.4097 37.5 25 37.5ZM9.72522 38.8009C9.52356 39.1481 9.77407 39.5833 10.1756 39.5833H39.8244C40.2259 39.5833 40.4764 39.1481 40.2748 38.8009L25.4504 13.2755C25.2496 12.9298 24.7504 12.9298 24.5496 13.2755L9.72522 38.8009Z" fill="white"/>
</svg>
