<svg width="50" height="50" viewBox="0 0 50 50" fill="none" xmlns="http://www.w3.org/2000/svg">
<path d="M2.08333 37.5C1.49306 37.5 0.998611 37.3 0.6 36.9C0.2 36.5014 0 36.0069 0 35.4167V34.2187C0 32.691 0.763889 31.4667 2.29167 30.5458C3.81944 29.6264 5.83333 29.1667 8.33333 29.1667C8.78472 29.1667 9.21042 29.184 9.61042 29.2187C10.009 29.2535 10.3993 29.3056 10.7812 29.375C10.2951 30.0694 9.93889 30.816 9.7125 31.6146C9.4875 32.4132 9.375 33.2639 9.375 34.1667V37.5H2.08333ZM14.5833 37.5C13.9931 37.5 13.4979 37.3 13.0979 36.9C12.6993 36.5014 12.5 36.0069 12.5 35.4167V34.1667C12.5 31.9097 13.6549 30.0778 15.9646 28.6708C18.2729 27.2653 21.2847 26.5625 25 26.5625C28.75 26.5625 31.7708 27.2653 34.0625 28.6708C36.3542 30.0778 37.5 31.9097 37.5 34.1667V35.4167C37.5 36.0069 37.3 36.5014 36.9 36.9C36.5014 37.3 36.0069 37.5 35.4167 37.5H14.5833ZM40.625 37.5V34.1667C40.625 33.2639 40.5035 32.4132 40.2604 31.6146C40.0174 30.816 39.6701 30.0694 39.2188 29.375C39.6007 29.3056 39.9917 29.2535 40.3917 29.2187C40.7903 29.184 41.2153 29.1667 41.6667 29.1667C44.1667 29.1667 46.1806 29.6264 47.7083 30.5458C49.2361 31.4667 50 32.691 50 34.2187V35.4167C50 36.0069 49.8 36.5014 49.4 36.9C49.0014 37.3 48.5069 37.5 47.9167 37.5H40.625ZM25 30.7292C23.0208 30.7292 21.25 30.9979 19.6875 31.5354C18.125 32.0743 17.2049 32.6736 16.9271 33.3333H33.0729C32.7604 32.6389 31.8319 32.0312 30.2875 31.5104C28.7417 30.9896 26.9792 30.7292 25 30.7292ZM8.33333 27.0833C7.1875 27.0833 6.20694 26.675 5.39167 25.8583C4.575 25.0431 4.16667 24.0625 4.16667 22.9167C4.16667 21.7708 4.575 20.7896 5.39167 19.9729C6.20694 19.1576 7.1875 18.75 8.33333 18.75C9.47917 18.75 10.4597 19.1576 11.275 19.9729C12.0917 20.7896 12.5 21.7708 12.5 22.9167C12.5 24.0625 12.0917 25.0431 11.275 25.8583C10.4597 26.675 9.47917 27.0833 8.33333 27.0833ZM41.6667 27.0833C40.5208 27.0833 39.5396 26.675 38.7229 25.8583C37.9076 25.0431 37.5 24.0625 37.5 22.9167C37.5 21.7708 37.9076 20.7896 38.7229 19.9729C39.5396 19.1576 40.5208 18.75 41.6667 18.75C42.8125 18.75 43.7937 19.1576 44.6104 19.9729C45.4257 20.7896 45.8333 21.7708 45.8333 22.9167C45.8333 24.0625 45.4257 25.0431 44.6104 25.8583C43.7937 26.675 42.8125 27.0833 41.6667 27.0833ZM25 25C23.2639 25 21.7882 24.3924 20.5729 23.1771C19.3576 21.9618 18.75 20.4861 18.75 18.75C18.75 17.0139 19.3576 15.5382 20.5729 14.3229C21.7882 13.1076 23.2639 12.5 25 12.5C26.7361 12.5 28.2118 13.1076 29.4271 14.3229C30.6424 15.5382 31.25 17.0139 31.25 18.75C31.25 20.4861 30.6424 21.9618 29.4271 23.1771C28.2118 24.3924 26.7361 25 25 25ZM25 16.6667C24.4097 16.6667 23.9153 16.866 23.5167 17.2646C23.1167 17.6646 22.9167 18.1597 22.9167 18.75C22.9167 19.3403 23.1167 19.8347 23.5167 20.2333C23.9153 20.6333 24.4097 20.8333 25 20.8333C25.5903 20.8333 26.0854 20.6333 26.4854 20.2333C26.884 19.8347 27.0833 19.3403 27.0833 18.75C27.0833 18.1597 26.884 17.6646 26.4854 17.2646C26.0854 16.866 25.5903 16.6667 25 16.6667ZM2.08333 37.5C1.49306 37.5 0.998611 37.3 0.6 36.9C0.2 36.5014 0 36.0069 0 35.4167V34.2187C0 32.691 0.763889 31.4667 2.29167 30.5458C3.81944 29.6264 5.83333 29.1667 8.33333 29.1667C8.78472 29.1667 9.21042 29.184 9.61042 29.2187C10.009 29.2535 10.3993 29.3056 10.7812 29.375C10.2951 30.0694 9.93889 30.816 9.7125 31.6146C9.4875 32.4132 9.375 33.2639 9.375 34.1667V37.5H2.08333ZM14.5833 37.5C13.9931 37.5 13.4979 37.3 13.0979 36.9C12.6993 36.5014 12.5 36.0069 12.5 35.4167V34.1667C12.5 31.9097 13.6549 30.0778 15.9646 28.6708C18.2729 27.2653 21.2847 26.5625 25 26.5625C28.75 26.5625 31.7708 27.2653 34.0625 28.6708C36.3542 30.0778 37.5 31.9097 37.5 34.1667V35.4167C37.5 36.0069 37.3 36.5014 36.9 36.9C36.5014 37.3 36.0069 37.5 35.4167 37.5H14.5833ZM40.625 37.5V34.1667C40.625 33.2639 40.5035 32.4132 40.2604 31.6146C40.0174 30.816 39.6701 30.0694 39.2188 29.375C39.6007 29.3056 39.9917 29.2535 40.3917 29.2187C40.7903 29.184 41.2153 29.1667 41.6667 29.1667C44.1667 29.1667 46.1806 29.6264 47.7083 30.5458C49.2361 31.4667 50 32.691 50 34.2187V35.4167C50 36.0069 49.8 36.5014 49.4 36.9C49.0014 37.3 48.5069 37.5 47.9167 37.5H40.625ZM25 30.7292C23.0208 30.7292 21.25 30.9979 19.6875 31.5354C18.125 32.0743 17.2049 32.6736 16.9271 33.3333H33.0729C32.7604 32.6389 31.8319 32.0312 30.2875 31.5104C28.7417 30.9896 26.9792 30.7292 25 30.7292ZM8.33333 27.0833C7.1875 27.0833 6.20694 26.675 5.39167 25.8583C4.575 25.0431 4.16667 24.0625 4.16667 22.9167C4.16667 21.7708 4.575 20.7896 5.39167 19.9729C6.20694 19.1576 7.1875 18.75 8.33333 18.75C9.47917 18.75 10.4597 19.1576 11.275 19.9729C12.0917 20.7896 12.5 21.7708 12.5 22.9167C12.5 24.0625 12.0917 25.0431 11.275 25.8583C10.4597 26.675 9.47917 27.0833 8.33333 27.0833ZM41.6667 27.0833C40.5208 27.0833 39.5396 26.675 38.7229 25.8583C37.9076 25.0431 37.5 24.0625 37.5 22.9167C37.5 21.7708 37.9076 20.7896 38.7229 19.9729C39.5396 19.1576 40.5208 18.75 41.6667 18.75C42.8125 18.75 43.7937 19.1576 44.6104 19.9729C45.4257 20.7896 45.8333 21.7708 45.8333 22.9167C45.8333 24.0625 45.4257 25.0431 44.6104 25.8583C43.7937 26.675 42.8125 27.0833 41.6667 27.0833ZM25 25C23.2639 25 21.7882 24.3924 20.5729 23.1771C19.3576 21.9618 18.75 20.4861 18.75 18.75C18.75 17.0139 19.3576 15.5382 20.5729 14.3229C21.7882 13.1076 23.2639 12.5 25 12.5C26.7361 12.5 28.2118 13.1076 29.4271 14.3229C30.6424 15.5382 31.25 17.0139 31.25 18.75C31.25 20.4861 30.6424 21.9618 29.4271 23.1771C28.2118 24.3924 26.7361 25 25 25ZM25 16.6667C24.4097 16.6667 23.9153 16.866 23.5167 17.2646C23.1167 17.6646 22.9167 18.1597 22.9167 18.75C22.9167 19.3403 23.1167 19.8347 23.5167 20.2333C23.9153 20.6333 24.4097 20.8333 25 20.8333C25.5903 20.8333 26.0854 20.6333 26.4854 20.2333C26.884 19.8347 27.0833 19.3403 27.0833 18.75C27.0833 18.1597 26.884 17.6646 26.4854 17.2646C26.0854 16.866 25.5903 16.6667 25 16.6667Z" fill="black"/>
</svg>
