<svg width="50" height="50" viewBox="0 0 50 50" fill="none" xmlns="http://www.w3.org/2000/svg">
<path d="M8.33335 43.75C7.18752 43.75 6.20696 43.3424 5.39169 42.5271C4.57502 41.7104 4.16669 40.7292 4.16669 39.5833V10.4167C4.16669 9.27083 4.57502 8.28958 5.39169 7.47292C6.20696 6.65764 7.18752 6.25 8.33335 6.25H20.8334C21.9792 6.25 22.9604 6.65764 23.7771 7.47292C24.5924 8.28958 25 9.27083 25 10.4167V14.5833H41.6667C42.8125 14.5833 43.7938 14.991 44.6104 15.8062C45.4257 16.6229 45.8334 17.6042 45.8334 18.75V39.5833C45.8334 40.7292 45.4257 41.7104 44.6104 42.5271C43.7938 43.3424 42.8125 43.75 41.6667 43.75H8.33335ZM8.33335 38.5417C8.33335 39.117 8.79972 39.5833 9.37502 39.5833H20.8334V35.4167H8.33335V38.5417ZM8.33335 31.25H20.8334V27.0833H8.33335V31.25ZM8.33335 22.9167H20.8334V18.75H8.33335V22.9167ZM8.33335 14.5833H20.8334V11.4583C20.8334 10.883 20.367 10.4167 19.7917 10.4167H9.37502C8.79972 10.4167 8.33335 10.883 8.33335 11.4583V14.5833ZM25 39.5833H40.625C41.2003 39.5833 41.6667 39.117 41.6667 38.5417V19.7917C41.6667 19.2164 41.2003 18.75 40.625 18.75H25V39.5833ZM29.1667 27.0833C28.0161 27.0833 27.0834 26.1506 27.0834 25C27.0834 23.8494 28.0161 22.9167 29.1667 22.9167H37.5C38.6506 22.9167 39.5834 23.8494 39.5834 25C39.5834 26.1506 38.6506 27.0833 37.5 27.0833H29.1667ZM29.1667 35.4167C28.0161 35.4167 27.0834 34.4839 27.0834 33.3333C27.0834 32.1827 28.0161 31.25 29.1667 31.25H37.5C38.6506 31.25 39.5834 32.1827 39.5834 33.3333C39.5834 34.4839 38.6506 35.4167 37.5 35.4167H29.1667Z" fill="black"/>
</svg>
