<svg width="50" height="50" viewBox="0 0 50 50" fill="none" xmlns="http://www.w3.org/2000/svg">
<path d="M25.0094 26.5625C26.9823 26.5625 28.6636 25.8646 30.0521 24.4698C31.4406 23.075 32.1354 21.3917 32.1354 19.4177C32.1354 17.4448 31.4375 15.7636 30.0427 14.375C28.6479 12.9865 26.9646 12.2917 24.9906 12.2917C23.0177 12.2917 21.3365 12.9896 19.9479 14.3844C18.5594 15.7792 17.8646 17.4625 17.8646 19.4365C17.8646 21.4094 18.5625 23.0906 19.9573 24.4792C21.3521 25.8677 23.0354 26.5625 25.0094 26.5625ZM25.0031 23.4375C23.8896 23.4375 22.9427 23.0479 22.1615 22.2688C21.3802 21.4896 20.9896 20.5438 20.9896 19.4302C20.9896 18.3167 21.3792 17.3698 22.1584 16.5886C22.9375 15.8073 23.8834 15.4167 24.9969 15.4167C26.1104 15.4167 27.0573 15.8063 27.8386 16.5854C28.6198 17.3646 29.0104 18.3104 29.0104 19.424C29.0104 20.5375 28.6209 21.4844 27.8417 22.2656C27.0625 23.0469 26.1167 23.4375 25.0031 23.4375ZM26.5588 45.7787C25.6987 45.8418 25 45.1357 25 44.2733C25 43.409 25.7021 42.716 26.5629 42.6375C27.9996 42.5065 29.4112 42.1937 30.7979 41.699C32.7035 41.0154 34.4903 40.038 36.0938 38.8021C34.3972 37.6413 32.5481 36.7211 30.599 36.0677C28.6719 35.425 26.8229 35.1042 25.0521 35.1042C22.8646 35.1042 20.6427 35.5906 18.3854 36.5625C16.1281 37.5344 13.8542 38.9761 11.5625 40.8854C9.23056 38.9443 7.36207 36.5064 6.09377 33.75C4.81176 30.9846 4.15385 27.971 4.16669 24.9229C4.16669 22.0584 4.71356 19.3667 5.80731 16.849C6.90106 14.3313 8.38544 12.1354 10.2604 10.2604C12.1354 8.38544 14.3438 6.90106 16.8875 5.80731C19.4292 4.71356 22.1292 4.16669 24.9865 4.16669C27.8771 4.16669 30.5906 4.71356 33.125 5.80731C35.6594 6.90106 37.8646 8.38544 39.7396 10.2604C41.6146 12.1354 43.099 14.3375 44.1927 16.8646C45.2865 19.3948 45.8334 22.1063 45.8334 25C45.8334 26.6323 45.6427 28.2209 45.2604 29.7656C45.0041 30.8004 44.6783 31.816 44.2855 32.8057C43.9622 33.6203 43.002 33.9428 42.2211 33.5451C41.4752 33.1651 41.1694 32.2658 41.468 31.4837C41.8055 30.5998 42.0715 29.7234 42.2656 28.8542C42.5584 27.555 42.7068 26.2276 42.7084 24.8959C42.7084 20.0177 40.9896 15.8646 37.5521 12.4354C34.1146 9.00627 29.9302 7.29169 25 7.29169C20.0698 7.29169 15.8854 9.01044 12.4479 12.4511C9.01044 15.8896 7.29169 20.0552 7.29169 24.9479C7.29169 27.1354 7.6646 29.2292 8.41148 31.225C9.15811 33.221 10.2611 35.0649 11.6667 36.6667C13.9584 35.1042 16.2063 33.9323 18.4115 33.1511C20.6167 32.3698 22.8302 31.9792 25.0521 31.9792C27.7604 31.9792 30.425 32.5084 33.0469 33.5677C35.6688 34.6271 38.2636 36.25 40.8334 38.4375C38.8987 40.7645 36.4711 42.6324 33.7261 43.9063C31.4671 44.9639 29.0376 45.5969 26.5588 45.7787Z" fill="black"/>
</svg>
