<svg width="50" height="50" viewBox="0 0 50 50" fill="none" xmlns="http://www.w3.org/2000/svg">
<path d="M18.75 11.4584C18.75 10.8831 19.2163 10.4167 19.7916 10.4167H26.0416C26.6169 10.4167 27.0833 10.8831 27.0833 11.4584V21.875C27.0833 22.4503 26.6169 22.9167 26.0416 22.9167H19.7916C19.2163 22.9167 18.75 22.4503 18.75 21.875V11.4584ZM39.5833 30.2084C39.5833 30.7836 39.1169 31.25 38.5416 31.25H19.7916C19.2163 31.25 18.75 30.7836 18.75 30.2084V28.125C18.75 27.5497 19.2163 27.0834 19.7916 27.0834H38.5416C39.1169 27.0834 39.5833 27.5497 39.5833 28.125V30.2084ZM39.5833 21.875C39.5833 22.4503 39.1169 22.9167 38.5416 22.9167H32.2916C31.7163 22.9167 31.25 22.4503 31.25 21.875V19.7917C31.25 19.2164 31.7163 18.75 32.2916 18.75H38.5416C39.1169 18.75 39.5833 19.2164 39.5833 19.7917V21.875ZM39.5833 13.5417C39.5833 14.117 39.1169 14.5834 38.5416 14.5834H32.2916C31.7163 14.5834 31.25 14.117 31.25 13.5417V11.4584C31.25 10.8831 31.7163 10.4167 32.2916 10.4167H38.5416C39.1169 10.4167 39.5833 10.8831 39.5833 11.4584V13.5417ZM8.33329 14.5834C8.33329 13.4328 7.40055 12.5 6.24996 12.5C5.09937 12.5 4.16663 13.4328 4.16663 14.5834V41.6667C4.16663 43.9584 6.04163 45.8334 8.33329 45.8334H35.4166C36.5672 45.8334 37.5 44.9006 37.5 43.75C37.5 42.5994 36.5672 41.6667 35.4166 41.6667H9.37496C8.79966 41.6667 8.33329 41.2003 8.33329 40.625V14.5834Z" fill="black"/>
<path d="M16.2037 37.5C15.1851 37.5 14.3132 37.1374 13.5879 36.4121C12.8626 35.6867 12.5 34.8148 12.5 33.7963V7.87039C12.5 6.85187 12.8626 5.97996 13.5879 5.25465C14.3132 4.52934 15.1851 4.16669 16.2037 4.16669H42.1296C43.1481 4.16669 44.02 4.52934 44.7453 5.25465C45.4706 5.97996 45.8333 6.85187 45.8333 7.87039V33.7963C45.8333 34.8148 45.4706 35.6867 44.7453 36.4121C44.02 37.1374 43.1481 37.5 42.1296 37.5H16.2037ZM16.2037 32.8704C16.2037 33.3818 16.6182 33.7963 17.1296 33.7963H41.2037C41.715 33.7963 42.1296 33.3818 42.1296 32.8704V8.79632C42.1296 8.28494 41.715 7.87039 41.2037 7.87039H17.1296C16.6182 7.87039 16.2037 8.28494 16.2037 8.79632V32.8704Z" fill="black"/>
</svg>
