<svg width="50" height="50" viewBox="0 0 50 50" fill="none" xmlns="http://www.w3.org/2000/svg">
<path d="M41.0417 26.875L29.1667 38.75H25.4167C24.8414 38.75 24.375 38.2836 24.375 37.7084V33.9584L36.25 22.0834L41.0417 26.875ZM48.125 25.2084C48.125 25.8334 47.5 26.4584 46.875 27.0834L42.6042 31.3542C42.0864 31.872 41.247 31.872 40.7292 31.3542C40.2114 30.8364 40.2114 29.997 40.7292 29.4792L45.2084 25L43.9584 23.75L42.5 25.2084L37.7084 20.4167L42.2917 16.0417C42.7084 15.625 43.5417 15.625 44.1667 16.0417L47.0834 18.9584C47.5 19.375 47.5 20.2084 47.0834 20.8334C46.6667 21.25 46.25 21.6667 46.25 22.0834C46.25 22.5 46.6667 22.9167 47.0834 23.3334C47.7084 23.9584 48.3334 24.5834 48.125 25.2084ZM7.29171 41.6667C6.71641 41.6667 6.25004 41.2003 6.25004 40.625V9.37502C6.25004 8.79972 6.71641 8.33335 7.29171 8.33335H20.8334V16.6667C20.8334 17.8173 21.7661 18.75 22.9167 18.75H31.25V21.875L35.4167 17.7084V16.6667L23.2218 4.47178C23.0265 4.27643 22.7615 4.16669 22.4852 4.16669H6.25004C3.95837 4.16669 2.08337 6.04169 2.08337 8.33335V41.6667C2.08337 43.9584 3.95837 45.8334 6.25004 45.8334H31.25C33.5417 45.8334 35.4167 43.9584 35.4167 41.6667H7.29171ZM22.9167 35.625C22.575 35.625 22.2333 35.7651 22.0065 35.8155C21.9306 35.8324 21.8628 35.7795 21.8456 35.7036L21.0177 32.0608C20.9099 31.5866 20.4882 31.25 20.0019 31.25H18.0772C17.8386 31.25 17.6072 31.3319 17.4217 31.4821L13.7045 34.4912C13.5819 34.5905 13.4027 34.4796 13.437 34.3255L14.1744 31.007C14.3843 30.0626 13.6656 29.1667 12.6981 29.1667C11.9773 29.1667 11.3566 29.6755 11.2152 30.3824L9.62423 38.3374C9.49532 38.982 9.98833 39.5834 10.6457 39.5834H12.1015C12.3581 39.5834 12.6057 39.4886 12.7968 39.3173L17.9057 34.7369C18.196 34.4766 18.6589 34.6159 18.7573 34.9932L19.5886 38.1796C19.7082 38.6383 20.1225 38.9584 20.5965 38.9584H21.875L22.9167 38.75V35.625Z" fill="black"/>
</svg>
