<svg width="50" height="50" viewBox="0 0 50 50" fill="none" xmlns="http://www.w3.org/2000/svg">
<path d="M29.1667 4.16669H12.5C11.395 4.16669 10.3352 4.60567 9.55376 5.38708C8.77236 6.16848 8.33337 7.22828 8.33337 8.33335V41.6667C8.33337 42.7718 8.77236 43.8316 9.55376 44.613C10.3352 45.3944 11.395 45.8334 12.5 45.8334H37.5C38.6051 45.8334 39.6649 45.3944 40.4463 44.613C41.2277 43.8316 41.6667 42.7718 41.6667 41.6667V16.6667M29.1667 4.16669L41.6667 16.6667M29.1667 4.16669V16.6667H41.6667M33.3334 27.0834H16.6667M33.3334 35.4167H16.6667M20.8334 18.75H16.6667" stroke="#1E1E1E" stroke-width="4" stroke-linecap="round" stroke-linejoin="round"/>
</svg>
