<svg width="50" height="50" viewBox="0 0 50 50" fill="none" xmlns="http://www.w3.org/2000/svg">
<path d="M10.4167 43.75C9.27083 43.75 8.28993 43.342 7.47396 42.526C6.65799 41.7101 6.25 40.7291 6.25 39.5833V10.4166C6.25 9.27081 6.65799 8.28991 7.47396 7.47394C8.28993 6.65797 9.27083 6.24998 10.4167 6.24998H19.1667C19.6181 4.99998 20.3733 3.99304 21.4323 3.22915C22.4913 2.46526 23.6806 2.08331 25 2.08331C26.3194 2.08331 27.5087 2.46526 28.5677 3.22915C29.6267 3.99304 30.3819 4.99998 30.8333 6.24998H39.5833C40.7292 6.24998 41.7101 6.65797 42.526 7.47394C43.342 8.28991 43.75 9.27081 43.75 10.4166V39.5833C43.75 40.7291 43.342 41.7101 42.526 42.526C41.7101 43.342 40.7292 43.75 39.5833 43.75H10.4167ZM10.4167 38.5416C10.4167 39.1169 10.883 39.5833 11.4583 39.5833H38.5417C39.117 39.5833 39.5833 39.1169 39.5833 38.5416V11.4583C39.5833 10.883 39.117 10.4166 38.5417 10.4166H11.4583C10.883 10.4166 10.4167 10.883 10.4167 11.4583V38.5416ZM16.6667 35.4166H27.0833C27.6736 35.4166 28.1684 35.217 28.5677 34.8177C28.967 34.4184 29.1667 33.9236 29.1667 33.3333C29.1667 32.743 28.967 32.2482 28.5677 31.8489C28.1684 31.4496 27.6736 31.25 27.0833 31.25H16.6667C16.0764 31.25 15.5816 31.4496 15.1823 31.8489C14.783 32.2482 14.5833 32.743 14.5833 33.3333C14.5833 33.9236 14.783 34.4184 15.1823 34.8177C15.5816 35.217 16.0764 35.4166 16.6667 35.4166ZM16.6667 27.0833H33.3333C33.9236 27.0833 34.4184 26.8837 34.8177 26.4844C35.217 26.0851 35.4167 25.5903 35.4167 25C35.4167 24.4097 35.217 23.9149 34.8177 23.5156C34.4184 23.1163 33.9236 22.9166 33.3333 22.9166H16.6667C16.0764 22.9166 15.5816 23.1163 15.1823 23.5156C14.783 23.9149 14.5833 24.4097 14.5833 25C14.5833 25.5903 14.783 26.0851 15.1823 26.4844C15.5816 26.8837 16.0764 27.0833 16.6667 27.0833ZM16.6667 18.75H33.3333C33.9236 18.75 34.4184 18.5503 34.8177 18.151C35.217 17.7517 35.4167 17.2569 35.4167 16.6666C35.4167 16.0764 35.217 15.5816 34.8177 15.1823C34.4184 14.783 33.9236 14.5833 33.3333 14.5833H16.6667C16.0764 14.5833 15.5816 14.783 15.1823 15.1823C14.783 15.5816 14.5833 16.0764 14.5833 16.6666C14.5833 17.2569 14.783 17.7517 15.1823 18.151C15.5816 18.5503 16.0764 18.75 16.6667 18.75ZM25 8.85415C25.4514 8.85415 25.8247 8.70658 26.1198 8.41144C26.4149 8.1163 26.5625 7.74304 26.5625 7.29165C26.5625 6.84026 26.4149 6.46699 26.1198 6.17185C25.8247 5.87672 25.4514 5.72915 25 5.72915C24.5486 5.72915 24.1753 5.87672 23.8802 6.17185C23.5851 6.46699 23.4375 6.84026 23.4375 7.29165C23.4375 7.74304 23.5851 8.1163 23.8802 8.41144C24.1753 8.70658 24.5486 8.85415 25 8.85415Z" fill="black"/>
</svg>
