<svg width="50" height="50" viewBox="0 0 50 50" fill="none" xmlns="http://www.w3.org/2000/svg">
<path d="M25.9994 6.7943C25.3775 6.45512 24.626 6.45512 24.0041 6.7943L5.43955 16.9204C3.99162 17.7102 3.99199 19.7894 5.44019 20.5787L10.4184 23.2918V34.5554C10.4184 35.3176 10.8347 36.019 11.5038 36.3841L24.0038 43.2055C24.6258 43.545 25.3777 43.545 25.9997 43.2055L38.4997 36.3841C39.1688 36.019 39.5851 35.3176 39.5851 34.5554V23.2918L43.7517 21.021V33.3335C43.7517 34.4841 44.6845 35.4168 45.8351 35.4168C46.9857 35.4168 47.9184 34.4841 47.9184 33.3335V19.9869C47.9184 19.2245 47.502 18.523 46.8327 18.1579L25.9994 6.7943ZM38.8077 18.5307C38.9814 18.6254 38.9814 18.8749 38.8077 18.9696L25.5005 26.2281C25.1896 26.3977 24.8138 26.3977 24.5029 26.2281L11.1958 18.9696C11.0221 18.8749 11.0221 18.6254 11.1958 18.5307L24.5029 11.2722C24.8139 11.1026 25.1896 11.1026 25.5005 11.2722L38.8077 18.5307ZM35.4184 32.6946C35.4184 33.0756 35.2104 33.4262 34.8759 33.6088L25.5009 38.7276C25.1898 38.8975 24.8137 38.8975 24.5026 38.7276L15.1276 33.6088C14.7931 33.4262 14.5851 33.0756 14.5851 32.6946V25.5627L24.0034 30.705C24.6256 31.0448 25.3779 31.0448 26.0001 30.705L35.4184 25.5627V32.6946Z" fill="black"/>
</svg>
