<svg width="50" height="50" viewBox="0 0 50 50" fill="none" xmlns="http://www.w3.org/2000/svg">
<path d="M12.5 45.8334C11.3542 45.8334 10.3737 45.4257 9.55837 44.6104C8.74171 43.7938 8.33337 42.8125 8.33337 41.6667V8.33335C8.33337 7.18752 8.74171 6.20627 9.55837 5.3896C10.3737 4.57433 11.3542 4.16669 12.5 4.16669H27.448C28.0035 4.16669 28.5334 4.27085 29.0375 4.47919C29.5403 4.68752 29.9827 4.98266 30.3646 5.3646L40.4688 15.4688C40.8507 15.8507 41.1459 16.2931 41.3542 16.7959C41.5625 17.3 41.6667 17.8299 41.6667 18.3854V25H37.5V18.75H29.1667C28.5764 18.75 28.082 18.55 27.6834 18.15C27.2834 17.7514 27.0834 17.257 27.0834 16.6667V8.33335H13.5417C12.9664 8.33335 12.5 8.79972 12.5 9.37502V40.625C12.5 41.2003 12.9664 41.6667 13.5417 41.6667H25V45.8334H12.5ZM38.125 30.2604L40.3646 32.5L32.2917 40.5209V42.7084H34.4792L42.5521 34.6875L44.7396 36.875L36.4063 45.2084C36.198 45.4167 35.9632 45.5729 35.7021 45.6771C35.4424 45.7813 35.1737 45.8334 34.8959 45.8334H30.2084C29.9306 45.8334 29.6875 45.7292 29.4792 45.5209C29.2709 45.3125 29.1667 45.0695 29.1667 44.7917V40.1042C29.1667 39.8264 29.2188 39.5577 29.323 39.2979C29.4271 39.0368 29.5834 38.8021 29.7917 38.5938L38.125 30.2604ZM44.7396 36.875L38.125 30.2604L41.1459 27.2396C41.5278 26.8577 42.0139 26.6667 42.6042 26.6667C43.1945 26.6667 43.6806 26.8577 44.0625 27.2396L47.7605 30.9375C48.1424 31.3195 48.3334 31.8056 48.3334 32.3959C48.3334 32.9861 48.1424 33.4722 47.7605 33.8542L44.7396 36.875Z" fill="black"/>
</svg>
